<svg width="264" height="343" viewBox="0 0 264 343" fill="none" xmlns="http://www.w3.org/2000/svg">
<path d="M162.707 166.844L165.424 131.526L170.743 130.883L181.137 161.199L187.634 134.882L207.212 156.785L220.112 136.872L240.825 149.347L237.948 153.87L221.845 144.17L207.915 165.675L190.471 146.16L181.993 180.504L169.86 145.118L166.612 187.36L161.201 187.658L149.044 125.29V203.381L143.602 203.732L135.207 142.378L128.942 182.34L123.538 181.538L132.69 123.168L138.101 123.218L143.578 163.248V96.9957L148.997 96.5L162.707 166.844Z" fill="black"/>
<path d="M97.607 254.103C97.607 254.103 107.65 222.604 94.2306 217.496C79.3289 211.825 82.6243 256.635 82.6243 256.635C82.6243 256.635 50.1622 221.174 43.1628 237.541C36.7011 252.65 68.9078 271.616 68.9078 271.616C68.9078 271.616 21.9603 275.944 26.2809 294.297C30.7181 313.146 75.555 288.706 75.555 288.706C75.555 288.706 59.6195 326.325 75.555 334.069C93.2732 342.68 97.607 288.706 97.607 288.706C97.607 288.706 135.094 324.211 145.298 307.062C155.339 290.188 109.635 271.616 109.635 271.616C109.635 271.616 144.438 260.864 140.023 245.98C135.227 229.813 97.607 254.103 97.607 254.103Z" stroke="black" stroke-width="5.9"/>
<path d="M67.7421 108.867L85.0583 39.231L8.96778 36.7938M44.4929 98.667L48.4938 69.0486L19.6373 68.1874" stroke="black" stroke-width="4.65"/>
</svg>
