<svg width="264" height="309" viewBox="0 0 264 309" fill="none" xmlns="http://www.w3.org/2000/svg">
<path d="M113.322 70.3225C115.686 78.2725 124.794 80.5808 134.369 76.7443C143.945 72.9079 151.972 56.5359 136.32 43.9805C120.669 31.4251 84.1155 43.7978 87.7921 73.1046C91.4687 102.411 121.181 108.627 144.778 99.1729C168.374 89.7188 172.759 60.788 165.891 43.5511C146.043 -6.26064 73.9403 17.5911 64.0228 58.3019C54.1053 99.0127 82.7165 124.535 105.049 128.089" stroke="black" stroke-width="5.62947"/>
<path d="M205.754 93.1276C205.754 93.1276 248.098 89.5239 253.285 120.625C254.594 128.473 251.972 135.076 247.275 140.208M247.275 140.208C233.359 155.416 201.226 157.723 199.114 141.307C196.685 122.427 233.732 118.541 247.275 140.208ZM247.275 140.208C249.482 143.74 251.065 147.949 251.751 152.884C253.592 166.12 247.869 176.135 239.864 182.577M239.864 182.577C226.575 193.272 206.996 194.124 205.289 183.533C202.872 168.538 230.967 166.853 239.864 182.577ZM239.864 182.577C241.036 184.647 241.874 187.019 242.267 189.702C245.64 212.765 215.822 218 215.822 218" stroke="black" stroke-width="6.25"/>
<path d="M64.4268 303.377C64.4268 303.377 33.8911 264.54 53.6609 258.195C59.6522 256.272 65.9876 263.956 65.9876 263.956C65.9876 263.956 54.9576 224.416 69.4286 224.416C76.7218 224.416 79.4851 236.967 79.4851 236.967C79.4851 236.967 93.4298 200.665 107.252 209.339C119.446 216.991 101.154 244.454 101.154 244.454C101.154 244.454 108.836 242.072 112.635 244.454C123.91 251.524 90.198 271.411 90.198 271.411C90.198 271.411 103.814 270.883 107.252 276.993C116.896 294.133 64.4268 303.377 64.4268 303.377ZM64.4268 303.377C67.8407 290.24 78.9273 256.611 95.962 227.183" stroke="black" stroke-width="4.76884"/>
</svg>
