<svg width="157" height="44" viewBox="0 0 157 44" fill="none" xmlns="http://www.w3.org/2000/svg">
<mask id="mask0_48_897" style="mask-type:alpha" maskUnits="userSpaceOnUse" x="0" y="0" width="44" height="44">
<rect width="44" height="44" fill="#D9D9D9"/>
</mask>
<g mask="url(#mask0_48_897)">
<path d="M25.2151 36.6667C23.8004 36.6667 22.6511 36.2189 21.7671 35.3233C20.8834 34.4277 20.4416 33.2678 20.4416 31.8436C20.4416 29.7564 21.3459 27.9024 23.1545 26.2818C24.963 24.6611 27.1907 23.7039 29.8374 23.4103C29.6987 21.84 29.3591 20.6901 28.8185 19.9604C28.278 19.2308 27.5047 18.8659 26.4985 18.8659C25.4409 18.8659 24.3539 19.2654 23.2374 20.0645C22.1209 20.8635 20.7589 22.2397 19.1514 24.1931C17.3792 26.3766 15.9472 27.8726 14.8554 28.6811C13.7634 29.4896 12.658 29.8939 11.5394 29.8939C10.2866 29.8939 9.27231 29.4485 8.4965 28.5578C7.721 27.6668 7.33325 26.4904 7.33325 25.0287C7.33325 23.6607 7.63942 22.2192 8.25175 20.7043C8.86408 19.1893 9.83774 17.4953 11.1727 15.6223C11.9647 14.5223 12.5277 13.6267 12.8617 12.9355C13.1953 12.2447 13.3622 11.6606 13.3622 11.1833C13.3622 10.8051 13.2652 10.5272 13.0711 10.3496C12.8774 10.1721 12.5983 10.0833 12.2338 10.0833C11.8109 10.0833 11.3585 10.239 10.8766 10.5504C10.3948 10.8617 9.86004 11.3442 9.27246 11.9978L7.33325 10.0833C8.16986 9.1737 8.99257 8.48803 9.80138 8.02633C10.6099 7.56433 11.4207 7.33333 12.2338 7.33333C13.3573 7.33333 14.2846 7.69297 15.0158 8.41225C15.7467 9.13153 16.1122 10.0482 16.1122 11.1622C16.1122 11.9778 15.9006 12.8614 15.4774 13.8133C15.0545 14.7654 14.3083 16.0018 13.2389 17.5225C12.148 19.102 11.3495 20.4887 10.8432 21.6828C10.3366 22.8766 10.0833 23.9707 10.0833 24.965C10.0833 25.6256 10.2201 26.1539 10.4939 26.5499C10.7677 26.9459 11.1162 27.1439 11.5394 27.1439C11.9155 27.1439 12.2886 27.0423 12.6586 26.8391C13.029 26.6356 13.4844 26.2836 14.0249 25.7831C14.4221 25.4259 14.8547 24.9752 15.3225 24.431C15.7903 23.8868 16.3508 23.2387 17.0041 22.4868C18.9526 20.148 20.6355 18.5015 22.0526 17.5473C23.4701 16.593 24.9403 16.1159 26.4632 16.1159C28.2519 16.1159 29.6857 16.7564 30.7646 18.0372C31.8435 19.3181 32.4511 21.0916 32.5874 23.3576H36.7019V26.1076H32.5874C32.39 29.3181 31.6197 31.8806 30.2765 33.7952C28.9333 35.7095 27.2462 36.6667 25.2151 36.6667ZM25.2367 33.9167C26.4729 33.9167 27.5094 33.2121 28.346 31.8028C29.1829 30.3939 29.6765 28.5201 29.8269 26.1814C28.0217 26.3766 26.4645 27.0294 25.1555 28.1398C23.8462 29.2505 23.1916 30.4593 23.1916 31.7662C23.1916 32.4054 23.3726 32.9236 23.7347 33.3208C24.0965 33.7181 24.5971 33.9167 25.2367 33.9167Z" fill="black"/>
</g>
<path d="M54.88 17.472C55.2853 17.4507 55.5627 17.36 55.712 17.2C55.8613 17.0293 55.9413 16.8 55.952 16.512C55.9733 16.2133 55.984 15.8773 55.984 15.504V8.592C55.984 8.37867 55.9893 8.176 56 7.984C56.0107 7.78133 56.0213 7.6 56.032 7.44C55.84 7.45067 55.648 7.46133 55.456 7.472C55.264 7.48267 55.072 7.49333 54.88 7.504V6.8L58.656 6.784C59.616 6.784 60.496 6.896 61.296 7.12C62.096 7.344 62.784 7.69067 63.36 8.16C63.9467 8.61867 64.3947 9.20533 64.704 9.92C65.024 10.624 65.184 11.456 65.184 12.416C65.184 13.152 65.056 13.856 64.8 14.528C64.544 15.2 64.16 15.7973 63.648 16.32C63.136 16.832 62.496 17.2427 61.728 17.552C60.9707 17.8507 60.0907 18 59.088 18H54.88V17.472ZM57.376 16.112C57.376 16.4 57.3707 16.6453 57.36 16.848C57.36 17.0507 57.3493 17.2213 57.328 17.36C57.616 17.3707 57.8773 17.3813 58.112 17.392C58.3573 17.392 58.56 17.392 58.72 17.392C58.8907 17.392 58.9973 17.392 59.04 17.392C59.7333 17.392 60.3573 17.264 60.912 17.008C61.4773 16.752 61.9573 16.4 62.352 15.952C62.7573 15.4933 63.0667 14.96 63.28 14.352C63.504 13.7333 63.616 13.0667 63.616 12.352C63.616 11.3387 63.4293 10.464 63.056 9.728C62.6933 8.98133 62.1333 8.40533 61.376 8C60.6187 7.584 59.6533 7.376 58.48 7.376C58.0853 7.376 57.808 7.456 57.648 7.616C57.4987 7.776 57.4133 8 57.392 8.288C57.3813 8.576 57.376 8.912 57.376 9.296V16.112ZM70.4979 18.256C69.7619 18.256 69.0952 18.0853 68.4979 17.744C67.9112 17.392 67.4472 16.9013 67.1059 16.272C66.7645 15.632 66.5939 14.88 66.5939 14.016C66.5939 13.2693 66.7592 12.5707 67.0899 11.92C67.4312 11.2693 67.9059 10.7467 68.5139 10.352C69.1219 9.94667 69.8259 9.744 70.6259 9.744C71.0739 9.744 71.4899 9.81867 71.8739 9.968C72.2685 10.1067 72.6152 10.3253 72.9139 10.624C73.2125 10.912 73.4472 11.28 73.6179 11.728C73.7885 12.1653 73.8739 12.6827 73.8739 13.28L68.2419 13.376C68.2419 14.1867 68.3272 14.9013 68.4979 15.52C68.6792 16.128 68.9672 16.6027 69.3619 16.944C69.7565 17.2747 70.2632 17.44 70.8819 17.44C71.2125 17.44 71.5485 17.3813 71.8899 17.264C72.2419 17.1467 72.5672 16.9867 72.8659 16.784C73.1645 16.5813 73.4045 16.3573 73.5859 16.112L73.9699 16.432C73.6819 16.88 73.3352 17.2373 72.9299 17.504C72.5245 17.7707 72.1085 17.9627 71.6819 18.08C71.2552 18.1973 70.8605 18.256 70.4979 18.256ZM68.2899 12.704H72.3699C72.3699 12.32 72.3112 11.952 72.1939 11.6C72.0872 11.2373 71.9059 10.944 71.6499 10.72C71.3939 10.4853 71.0579 10.368 70.6419 10.368C70.0232 10.368 69.5059 10.5547 69.0899 10.928C68.6845 11.2907 68.4179 11.8827 68.2899 12.704ZM78.5778 18.256C78.0444 18.256 77.5698 18.1813 77.1538 18.032C76.7378 17.8933 76.3964 17.7333 76.1298 17.552L76.1938 18.112H75.5218L75.4258 15.36H75.9218C75.9431 15.7973 76.0658 16.192 76.2898 16.544C76.5138 16.8853 76.8018 17.152 77.1538 17.344C77.5058 17.536 77.8844 17.632 78.2898 17.632C78.5671 17.632 78.8391 17.5893 79.1058 17.504C79.3724 17.408 79.5964 17.2693 79.7778 17.088C79.9591 16.896 80.0498 16.656 80.0498 16.368C80.0498 16.0693 79.9591 15.824 79.7778 15.632C79.6071 15.4293 79.3778 15.2533 79.0898 15.104C78.8018 14.9547 78.4924 14.816 78.1618 14.688C77.8418 14.56 77.5218 14.4267 77.2018 14.288C76.8818 14.1493 76.5831 13.984 76.3058 13.792C76.0391 13.6 75.8258 13.3653 75.6658 13.088C75.5058 12.8107 75.4258 12.4693 75.4258 12.064C75.4258 11.84 75.4684 11.5947 75.5538 11.328C75.6391 11.0613 75.7831 10.8107 75.9858 10.576C76.1884 10.3307 76.4658 10.1333 76.8178 9.984C77.1698 9.824 77.6178 9.744 78.1618 9.744C78.4498 9.744 78.7698 9.792 79.1218 9.888C79.4738 9.984 79.8151 10.1653 80.1458 10.432L80.1138 9.824H80.7858V12.624H80.2738C80.2524 12.2507 80.1671 11.8933 80.0178 11.552C79.8684 11.2 79.6498 10.912 79.3618 10.688C79.0738 10.4533 78.7004 10.336 78.2418 10.336C77.7511 10.336 77.3671 10.4587 77.0898 10.704C76.8124 10.9493 76.6738 11.232 76.6738 11.552C76.6738 11.8827 76.7751 12.16 76.9778 12.384C77.1911 12.5973 77.4631 12.784 77.7938 12.944C78.1244 13.104 78.4764 13.2587 78.8498 13.408C79.2551 13.5787 79.6498 13.7653 80.0338 13.968C80.4178 14.1707 80.7324 14.4267 80.9778 14.736C81.2231 15.0347 81.3458 15.424 81.3458 15.904C81.3458 16.4373 81.2071 16.88 80.9298 17.232C80.6631 17.584 80.3164 17.84 79.8898 18C79.4738 18.1707 79.0364 18.256 78.5778 18.256ZM82.704 17.52C83.0347 17.52 83.264 17.44 83.392 17.28C83.52 17.1093 83.5947 16.88 83.616 16.592C83.6373 16.2933 83.648 15.952 83.648 15.568V11.92C83.648 11.7493 83.6533 11.5893 83.664 11.44C83.6747 11.28 83.6907 11.0933 83.712 10.88C83.52 10.8907 83.328 10.9013 83.136 10.912C82.9547 10.9227 82.768 10.9333 82.576 10.944V10.272C83.0453 10.272 83.408 10.2507 83.664 10.208C83.92 10.1653 84.112 10.112 84.24 10.048C84.3787 9.984 84.4853 9.91467 84.56 9.84H85.024V16.304C85.024 16.5173 85.0187 16.7093 85.008 16.88C85.008 17.04 84.992 17.2107 84.96 17.392C85.1307 17.3813 85.296 17.376 85.456 17.376C85.6267 17.3653 85.7973 17.3547 85.968 17.344V18H82.704V17.52ZM84.24 8.256C84.016 8.256 83.8187 8.16533 83.648 7.984C83.4773 7.80267 83.392 7.57867 83.392 7.312C83.392 7.04533 83.4773 6.82133 83.648 6.64C83.8293 6.448 84.032 6.352 84.256 6.352C84.5013 6.352 84.704 6.448 84.864 6.64C85.0347 6.82133 85.12 7.04533 85.12 7.312C85.12 7.57867 85.0293 7.80267 84.848 7.984C84.6773 8.16533 84.4747 8.256 84.24 8.256ZM91.06 22.336C90.1 22.336 89.3267 22.2293 88.74 22.016C88.1533 21.8027 87.7267 21.5307 87.46 21.2C87.1933 20.8693 87.06 20.528 87.06 20.176C87.06 19.8453 87.1347 19.552 87.284 19.296C87.444 19.0507 87.636 18.8373 87.86 18.656C88.0947 18.4747 88.3187 18.3413 88.532 18.256C88.1907 18.1387 87.9187 17.984 87.716 17.792C87.524 17.5893 87.428 17.3227 87.428 16.992C87.428 16.6187 87.5773 16.272 87.876 15.952C88.1747 15.6213 88.5587 15.4187 89.028 15.344C88.5373 15.1093 88.1427 14.784 87.844 14.368C87.556 13.952 87.412 13.4667 87.412 12.912C87.412 12.272 87.5773 11.7173 87.908 11.248C88.2387 10.768 88.66 10.4 89.172 10.144C89.6947 9.87733 90.2333 9.744 90.788 9.744C91.14 9.744 91.492 9.79733 91.844 9.904C92.196 10 92.5213 10.144 92.82 10.336C92.9267 10.0373 93.076 9.77067 93.268 9.536C93.4707 9.30133 93.7 9.12 93.956 8.992C94.212 8.85333 94.4787 8.784 94.756 8.784C95.0333 8.784 95.2413 8.85867 95.38 9.008C95.5293 9.14667 95.604 9.33867 95.604 9.584C95.604 9.65867 95.5827 9.74933 95.54 9.856C95.4973 9.96267 95.4227 10.0533 95.316 10.128C95.22 10.2027 95.0867 10.24 94.916 10.24C94.7347 10.24 94.5853 10.1867 94.468 10.08C94.3507 9.97333 94.276 9.84 94.244 9.68C93.9773 9.72267 93.7693 9.85067 93.62 10.064C93.4707 10.2667 93.3693 10.4907 93.316 10.736C93.572 10.9707 93.7747 11.2533 93.924 11.584C94.084 11.9147 94.164 12.2667 94.164 12.64C94.164 13.2373 94.004 13.7707 93.684 14.24C93.3747 14.7093 92.964 15.0773 92.452 15.344C91.94 15.6 91.3853 15.728 90.788 15.728C90.5853 15.728 90.4093 15.7173 90.26 15.696C90.1107 15.664 89.9293 15.648 89.716 15.648C89.3213 15.648 89.0013 15.744 88.756 15.936C88.5107 16.128 88.4253 16.3573 88.5 16.624C88.5853 16.88 88.8467 17.0453 89.284 17.12C89.7213 17.184 90.308 17.232 91.044 17.264C91.8653 17.296 92.5693 17.392 93.156 17.552C93.7427 17.712 94.1907 17.9573 94.5 18.288C94.82 18.6293 94.98 19.088 94.98 19.664C94.98 20.0907 94.8627 20.4693 94.628 20.8C94.404 21.1413 94.1 21.424 93.716 21.648C93.3427 21.872 92.9213 22.0427 92.452 22.16C91.9933 22.2773 91.5293 22.336 91.06 22.336ZM91.044 21.712C91.9613 21.712 92.676 21.5413 93.188 21.2C93.7 20.8587 93.956 20.4587 93.956 20C93.956 19.6053 93.8227 19.3013 93.556 19.088C93.2893 18.8853 92.9267 18.7413 92.468 18.656C92.0093 18.5813 91.4813 18.5387 90.884 18.528C90.596 18.5173 90.3133 18.5013 90.036 18.48C89.7587 18.4693 89.492 18.4427 89.236 18.4C88.948 18.592 88.724 18.8267 88.564 19.104C88.404 19.3813 88.324 19.6747 88.324 19.984C88.324 20.5067 88.5693 20.9227 89.06 21.232C89.5613 21.552 90.2227 21.712 91.044 21.712ZM90.836 15.152C91.2307 15.152 91.556 15.056 91.812 14.864C92.0787 14.672 92.276 14.4107 92.404 14.08C92.5427 13.7493 92.612 13.376 92.612 12.96C92.612 12.4907 92.5427 12.0533 92.404 11.648C92.2653 11.2427 92.0573 10.9173 91.78 10.672C91.5133 10.4267 91.172 10.304 90.756 10.304C90.18 10.304 89.732 10.5227 89.412 10.96C89.1027 11.3867 88.948 11.92 88.948 12.56C88.948 13.072 89.0227 13.5253 89.172 13.92C89.3213 14.304 89.5347 14.608 89.812 14.832C90.1 15.0453 90.4413 15.152 90.836 15.152ZM96.0478 18V17.52C96.3784 17.52 96.6078 17.44 96.7358 17.28C96.8638 17.1093 96.9384 16.88 96.9598 16.592C96.9811 16.2933 96.9918 15.952 96.9918 15.568L97.0078 11.92C97.0078 11.7493 97.0078 11.5787 97.0078 11.408C97.0184 11.2373 97.0398 11.0613 97.0718 10.88C96.8798 10.8907 96.6878 10.9013 96.4958 10.912C96.3144 10.9227 96.1278 10.9333 95.9358 10.944V10.272C96.4051 10.272 96.7571 10.2507 96.9918 10.208C97.2371 10.1653 97.4184 10.112 97.5358 10.048C97.6531 9.984 97.7491 9.91467 97.8238 9.84H98.2878C98.2984 9.91467 98.3038 10 98.3038 10.096C98.3144 10.192 98.3251 10.2987 98.3358 10.416C98.3464 10.5333 98.3518 10.6667 98.3518 10.816C98.5864 10.6133 98.8424 10.432 99.1198 10.272C99.4078 10.112 99.7064 9.984 100.016 9.888C100.336 9.792 100.65 9.744 100.96 9.744C101.888 9.744 102.565 10.0373 102.992 10.624C103.418 11.2 103.632 12.1013 103.632 13.328V16.304C103.632 16.5173 103.626 16.7093 103.616 16.88C103.616 17.04 103.6 17.2107 103.568 17.392C103.738 17.3813 103.904 17.376 104.064 17.376C104.234 17.3653 104.405 17.3547 104.576 17.344V18H101.312V17.52C101.642 17.52 101.872 17.44 102 17.28C102.128 17.1093 102.202 16.88 102.224 16.592C102.245 16.2933 102.256 15.952 102.256 15.568V13.328C102.245 12.4107 102.09 11.7173 101.792 11.248C101.504 10.7787 101.045 10.5493 100.416 10.56C100.032 10.5707 99.6531 10.672 99.2798 10.864C98.9171 11.056 98.6131 11.3013 98.3678 11.6C98.3784 11.6853 98.3838 11.7813 98.3838 11.888C98.3838 11.9947 98.3838 12.1067 98.3838 12.224L98.3678 16.304C98.3678 16.5173 98.3624 16.7093 98.3518 16.88C98.3518 17.04 98.3358 17.2107 98.3038 17.392C98.4744 17.3813 98.6398 17.376 98.7998 17.376C98.9704 17.3653 99.1411 17.3547 99.3118 17.344V18H96.0478ZM109.639 18.256C108.903 18.256 108.236 18.0853 107.639 17.744C107.052 17.392 106.588 16.9013 106.247 16.272C105.905 15.632 105.735 14.88 105.735 14.016C105.735 13.2693 105.9 12.5707 106.231 11.92C106.572 11.2693 107.047 10.7467 107.655 10.352C108.263 9.94667 108.967 9.744 109.766 9.744C110.215 9.744 110.631 9.81867 111.015 9.968C111.409 10.1067 111.756 10.3253 112.055 10.624C112.353 10.912 112.588 11.28 112.759 11.728C112.929 12.1653 113.015 12.6827 113.015 13.28L107.383 13.376C107.383 14.1867 107.468 14.9013 107.639 15.52C107.82 16.128 108.108 16.6027 108.503 16.944C108.897 17.2747 109.404 17.44 110.023 17.44C110.353 17.44 110.689 17.3813 111.031 17.264C111.383 17.1467 111.708 16.9867 112.007 16.784C112.305 16.5813 112.545 16.3573 112.727 16.112L113.111 16.432C112.823 16.88 112.476 17.2373 112.071 17.504C111.665 17.7707 111.249 17.9627 110.823 18.08C110.396 18.1973 110.001 18.256 109.639 18.256ZM107.431 12.704H111.511C111.511 12.32 111.452 11.952 111.335 11.6C111.228 11.2373 111.047 10.944 110.791 10.72C110.535 10.4853 110.199 10.368 109.783 10.368C109.164 10.368 108.647 10.5547 108.231 10.928C107.825 11.2907 107.559 11.8827 107.431 12.704ZM114.438 17.52C114.769 17.52 114.998 17.44 115.126 17.28C115.254 17.1093 115.329 16.88 115.35 16.592C115.372 16.2933 115.382 15.952 115.382 15.568V11.92C115.382 11.7493 115.382 11.5787 115.382 11.408C115.393 11.2373 115.414 11.0613 115.446 10.88C115.254 10.8907 115.062 10.9013 114.87 10.912C114.689 10.912 114.502 10.9173 114.31 10.928V10.272H114.806C115.265 10.272 115.58 10.2293 115.75 10.144C115.932 10.048 116.081 9.94667 116.198 9.84H116.662C116.684 10.0107 116.7 10.224 116.71 10.48C116.721 10.7253 116.732 11.04 116.742 11.424C116.902 11.1573 117.121 10.896 117.398 10.64C117.676 10.384 117.985 10.1707 118.326 10C118.678 9.82933 119.046 9.744 119.43 9.744C119.729 9.744 119.99 9.824 120.214 9.984C120.438 10.144 120.55 10.4 120.55 10.752C120.55 10.8373 120.524 10.944 120.47 11.072C120.417 11.1893 120.332 11.296 120.214 11.392C120.097 11.4773 119.942 11.52 119.75 11.52C119.516 11.5093 119.329 11.4187 119.19 11.248C119.052 11.0667 118.998 10.8587 119.03 10.624C118.764 10.6133 118.486 10.6827 118.198 10.832C117.921 10.9813 117.66 11.1893 117.414 11.456C117.169 11.712 116.95 12.016 116.758 12.368L116.774 16.304C116.774 16.5173 116.769 16.7093 116.758 16.88C116.758 17.04 116.742 17.2107 116.71 17.392C116.881 17.3813 117.046 17.376 117.206 17.376C117.377 17.3653 117.548 17.3547 117.718 17.344V18H114.438V17.52Z" fill="#767676"/>
<path d="M53.904 38V37.472C54.224 37.472 54.4693 37.3867 54.64 37.216C54.8107 37.0453 54.9493 36.8107 55.056 36.512C55.1733 36.2133 55.3067 35.8667 55.456 35.472L58.752 26.496H59.136L62.704 35.6C62.7893 35.824 62.8853 36.112 62.992 36.464C63.0987 36.816 63.1413 37.1147 63.12 37.36C63.3013 37.3493 63.4827 37.3387 63.664 37.328C63.8453 37.3173 64.0267 37.3067 64.208 37.296V38H60.544V37.472C60.9493 37.4613 61.216 37.3707 61.344 37.2C61.472 37.0293 61.52 36.8267 61.488 36.592C61.456 36.3573 61.4027 36.144 61.328 35.952L60.768 34.448L56.608 34.544L56.048 36.256C55.9733 36.512 55.904 36.7147 55.84 36.864C55.7867 37.0133 55.7227 37.1787 55.648 37.36C55.8613 37.3493 56.0693 37.3387 56.272 37.328C56.4853 37.3173 56.6933 37.3067 56.896 37.296V38H53.904ZM56.848 33.856H60.544L59.408 30.8C59.2907 30.4693 59.168 30.144 59.04 29.824C58.9227 29.4933 58.8053 29.1627 58.688 28.832H58.656C58.5493 29.1307 58.4373 29.4293 58.32 29.728C58.2133 30.0267 58.1013 30.3307 57.984 30.64L56.848 33.856ZM64.7196 38V37.52C65.0503 37.52 65.2796 37.44 65.4076 37.28C65.5356 37.1093 65.6103 36.88 65.6316 36.592C65.653 36.2933 65.6636 35.952 65.6636 35.568V31.92C65.6636 31.7493 65.6636 31.5787 65.6636 31.408C65.6743 31.2373 65.6956 31.0613 65.7276 30.88C65.5356 30.8907 65.3436 30.9013 65.1516 30.912C64.9703 30.9227 64.7836 30.9333 64.5916 30.944V30.272C65.061 30.272 65.413 30.2507 65.6476 30.208C65.893 30.1653 66.0743 30.112 66.1916 30.048C66.309 29.984 66.405 29.9147 66.4796 29.84H66.9436C66.965 29.9467 66.9756 30.0693 66.9756 30.208C66.9863 30.3467 66.997 30.5067 67.0076 30.688C67.3276 30.4107 67.6956 30.1867 68.1116 30.016C68.5276 29.8347 68.9436 29.744 69.3596 29.744C69.893 29.744 70.341 29.84 70.7036 30.032C71.0663 30.224 71.349 30.4853 71.5516 30.816C71.9143 30.5173 72.3303 30.2667 72.7996 30.064C73.2796 29.8507 73.749 29.744 74.2076 29.744C75.1356 29.744 75.8183 30.0267 76.2556 30.592C76.693 31.1467 76.901 32.0587 76.8796 33.328L76.8636 36.304C76.8636 36.5173 76.8583 36.7093 76.8476 36.88C76.8476 37.04 76.8316 37.2107 76.7996 37.392C76.9703 37.3813 77.1356 37.376 77.2956 37.376C77.4663 37.3653 77.637 37.3547 77.8076 37.344V38H74.5436V37.52C74.8743 37.52 75.1036 37.44 75.2316 37.28C75.3596 37.1093 75.4343 36.88 75.4556 36.592C75.477 36.2933 75.4876 35.952 75.4876 35.568V33.328C75.4876 32.4107 75.3383 31.7227 75.0396 31.264C74.7516 30.8053 74.293 30.5813 73.6636 30.592C73.333 30.592 73.0023 30.6667 72.6716 30.816C72.341 30.9653 72.053 31.152 71.8076 31.376C71.861 31.5467 71.8983 31.7333 71.9196 31.936C71.9516 32.128 71.9676 32.3307 71.9676 32.544C71.957 33.1627 71.9516 33.7867 71.9516 34.416C71.9516 35.0453 71.9463 35.6747 71.9356 36.304C71.9356 36.5173 71.9303 36.7093 71.9196 36.88C71.9196 37.04 71.9036 37.2107 71.8716 37.392C72.0423 37.3813 72.2076 37.376 72.3676 37.376C72.5383 37.3653 72.709 37.3547 72.8796 37.344V38H69.6156V37.52C69.9463 37.52 70.1703 37.44 70.2876 37.28C70.4156 37.1093 70.4903 36.88 70.5116 36.592C70.5436 36.2933 70.5596 35.952 70.5596 35.568L70.5756 33.328C70.5863 32.4107 70.453 31.7173 70.1756 31.248C69.8983 30.7787 69.445 30.5493 68.8156 30.56C68.485 30.56 68.1596 30.6347 67.8396 30.784C67.5196 30.9227 67.2476 31.104 67.0236 31.328C67.0236 31.456 67.0236 31.5947 67.0236 31.744C67.0343 31.8827 67.0396 32.032 67.0396 32.192V36.304C67.0396 36.5173 67.0343 36.7093 67.0236 36.88C67.0236 37.04 67.0076 37.2107 66.9756 37.392C67.1463 37.3813 67.3116 37.376 67.4716 37.376C67.6423 37.3653 67.813 37.3547 67.9836 37.344V38H64.7196ZM79.0165 37.52C79.3472 37.52 79.5765 37.44 79.7045 37.28C79.8325 37.1093 79.9072 36.88 79.9285 36.592C79.9498 36.2933 79.9605 35.952 79.9605 35.568V31.92C79.9605 31.7493 79.9658 31.5893 79.9765 31.44C79.9872 31.28 80.0032 31.0933 80.0245 30.88C79.8325 30.8907 79.6405 30.9013 79.4485 30.912C79.2672 30.9227 79.0805 30.9333 78.8885 30.944V30.272C79.3578 30.272 79.7205 30.2507 79.9765 30.208C80.2325 30.1653 80.4245 30.112 80.5525 30.048C80.6912 29.984 80.7978 29.9147 80.8725 29.84H81.3365V36.304C81.3365 36.5173 81.3312 36.7093 81.3205 36.88C81.3205 37.04 81.3045 37.2107 81.2725 37.392C81.4432 37.3813 81.6085 37.376 81.7685 37.376C81.9392 37.3653 82.1098 37.3547 82.2805 37.344V38H79.0165V37.52ZM80.5525 28.256C80.3285 28.256 80.1312 28.1653 79.9605 27.984C79.7898 27.8027 79.7045 27.5787 79.7045 27.312C79.7045 27.0453 79.7898 26.8213 79.9605 26.64C80.1418 26.448 80.3445 26.352 80.5685 26.352C80.8138 26.352 81.0165 26.448 81.1765 26.64C81.3472 26.8213 81.4325 27.0453 81.4325 27.312C81.4325 27.5787 81.3418 27.8027 81.1605 27.984C80.9898 28.1653 80.7872 28.256 80.5525 28.256ZM86.7965 38.256C86.2632 38.256 85.7885 38.1813 85.3725 38.032C84.9565 37.8933 84.6152 37.7333 84.3485 37.552L84.4125 38.112H83.7405L83.6445 35.36H84.1405C84.1618 35.7973 84.2845 36.192 84.5085 36.544C84.7325 36.8853 85.0205 37.152 85.3725 37.344C85.7245 37.536 86.1032 37.632 86.5085 37.632C86.7858 37.632 87.0578 37.5893 87.3245 37.504C87.5912 37.408 87.8152 37.2693 87.9965 37.088C88.1778 36.896 88.2685 36.656 88.2685 36.368C88.2685 36.0693 88.1778 35.824 87.9965 35.632C87.8258 35.4293 87.5965 35.2533 87.3085 35.104C87.0205 34.9547 86.7112 34.816 86.3805 34.688C86.0605 34.56 85.7405 34.4267 85.4205 34.288C85.1005 34.1493 84.8018 33.984 84.5245 33.792C84.2578 33.6 84.0445 33.3653 83.8845 33.088C83.7245 32.8107 83.6445 32.4693 83.6445 32.064C83.6445 31.84 83.6872 31.5947 83.7725 31.328C83.8578 31.0613 84.0018 30.8107 84.2045 30.576C84.4072 30.3307 84.6845 30.1333 85.0365 29.984C85.3885 29.824 85.8365 29.744 86.3805 29.744C86.6685 29.744 86.9885 29.792 87.3405 29.888C87.6925 29.984 88.0338 30.1653 88.3645 30.432L88.3325 29.824H89.0045V32.624H88.4925C88.4712 32.2507 88.3858 31.8933 88.2365 31.552C88.0872 31.2 87.8685 30.912 87.5805 30.688C87.2925 30.4533 86.9192 30.336 86.4605 30.336C85.9698 30.336 85.5858 30.4587 85.3085 30.704C85.0312 30.9493 84.8925 31.232 84.8925 31.552C84.8925 31.8827 84.9938 32.16 85.1965 32.384C85.4098 32.5973 85.6818 32.784 86.0125 32.944C86.3432 33.104 86.6952 33.2587 87.0685 33.408C87.4738 33.5787 87.8685 33.7653 88.2525 33.968C88.6365 34.1707 88.9512 34.4267 89.1965 34.736C89.4418 35.0347 89.5645 35.424 89.5645 35.904C89.5645 36.4373 89.4258 36.88 89.1485 37.232C88.8818 37.584 88.5352 37.84 88.1085 38C87.6925 38.1707 87.2552 38.256 86.7965 38.256ZM96.0588 37.52C96.3894 37.52 96.6188 37.44 96.7468 37.28C96.8748 37.1093 96.9494 36.88 96.9708 36.592C96.9921 36.2933 97.0028 35.952 97.0028 35.568V33.328C97.0028 32.4107 96.8534 31.7227 96.5548 31.264C96.2668 30.8053 95.8081 30.5813 95.1788 30.592C94.7841 30.6027 94.3948 30.6987 94.0108 30.88C93.6374 31.0613 93.3334 31.296 93.0988 31.584V36.304C93.0988 36.5173 93.0934 36.7093 93.0828 36.88C93.0721 37.04 93.0508 37.2107 93.0188 37.392C93.1894 37.3813 93.3548 37.376 93.5148 37.376C93.6854 37.3653 93.8561 37.3547 94.0268 37.344V38H90.7628V37.52C91.0934 37.52 91.3228 37.44 91.4508 37.28C91.5788 37.1093 91.6534 36.88 91.6748 36.592C91.7068 36.2933 91.7228 35.952 91.7228 35.568V28C91.7228 27.8293 91.7228 27.6693 91.7228 27.52C91.7334 27.36 91.7494 27.1733 91.7708 26.96C91.5788 26.9707 91.3868 26.9813 91.1948 26.992C91.0134 27.0027 90.8268 27.0133 90.6348 27.024V26.352C91.1041 26.352 91.4668 26.3307 91.7228 26.288C91.9894 26.2453 92.1868 26.192 92.3148 26.128C92.4534 26.064 92.5601 25.9947 92.6348 25.92H93.0988V30.8C93.3334 30.5973 93.5948 30.4213 93.8828 30.272C94.1814 30.112 94.4854 29.984 94.7948 29.888C95.1148 29.792 95.4241 29.744 95.7228 29.744C96.6508 29.744 97.3174 30.0373 97.7228 30.624C98.1388 31.2 98.3521 32.1013 98.3628 33.328L98.3788 36.304C98.3788 36.5173 98.3734 36.7093 98.3628 36.88C98.3628 37.04 98.3468 37.2107 98.3148 37.392C98.4854 37.3813 98.6508 37.376 98.8108 37.376C98.9814 37.3653 99.1521 37.3547 99.3228 37.344V38H96.0588V37.52ZM105.365 38C105.333 37.8187 105.312 37.6587 105.301 37.52C105.29 37.3813 105.274 37.2373 105.253 37.088C104.89 37.4507 104.496 37.7387 104.069 37.952C103.653 38.1547 103.21 38.256 102.741 38.256C101.93 38.256 101.328 38.0747 100.933 37.712C100.538 37.3387 100.341 36.8853 100.341 36.352C100.341 35.8613 100.49 35.44 100.789 35.088C101.098 34.7253 101.493 34.432 101.973 34.208C102.464 33.9733 102.992 33.8027 103.557 33.696C104.133 33.5787 104.688 33.5253 105.221 33.536V32.544C105.221 32.1707 105.189 31.8187 105.125 31.488C105.061 31.1573 104.922 30.8853 104.709 30.672C104.496 30.4587 104.154 30.3467 103.685 30.336C103.376 30.3253 103.056 30.384 102.725 30.512C102.405 30.64 102.17 30.8587 102.021 31.168C102.106 31.2533 102.16 31.3547 102.181 31.472C102.213 31.5787 102.229 31.68 102.229 31.776C102.229 31.904 102.176 32.0533 102.069 32.224C101.962 32.384 101.776 32.4587 101.509 32.448C101.285 32.448 101.114 32.3733 100.997 32.224C100.88 32.064 100.821 31.8773 100.821 31.664C100.821 31.3013 100.954 30.976 101.221 30.688C101.498 30.4 101.877 30.1707 102.357 30C102.837 29.8293 103.381 29.744 103.989 29.744C104.885 29.744 105.546 29.984 105.973 30.464C106.4 30.9333 106.608 31.68 106.597 32.704C106.597 33.0987 106.597 33.4987 106.597 33.904C106.597 34.2987 106.592 34.6987 106.581 35.104C106.581 35.4987 106.581 35.8987 106.581 36.304C106.581 36.4747 106.576 36.6453 106.565 36.816C106.554 36.9867 106.538 37.1787 106.517 37.392C106.709 37.3813 106.896 37.3707 107.077 37.36C107.269 37.3493 107.461 37.3387 107.653 37.328V38H105.365ZM105.221 34.08C104.858 34.0907 104.474 34.1387 104.069 34.224C103.674 34.2987 103.306 34.416 102.965 34.576C102.634 34.736 102.362 34.9493 102.149 35.216C101.946 35.472 101.85 35.7867 101.861 36.16C101.882 36.5547 102.01 36.8533 102.245 37.056C102.49 37.248 102.778 37.344 103.109 37.344C103.546 37.344 103.925 37.264 104.245 37.104C104.576 36.9333 104.901 36.6987 105.221 36.4C105.21 36.2827 105.205 36.1547 105.205 36.016C105.205 35.8773 105.205 35.7333 105.205 35.584C105.205 35.5307 105.205 35.36 105.205 35.072C105.216 34.784 105.221 34.4533 105.221 34.08ZM121.882 38.256L115.498 29.68C115.402 29.552 115.306 29.4293 115.21 29.312C115.125 29.184 115.034 29.056 114.938 28.928H114.922L114.97 35.776C114.97 36.0427 114.97 36.3093 114.97 36.576C114.97 36.8427 114.959 37.104 114.938 37.36C115.13 37.3493 115.322 37.3387 115.514 37.328C115.706 37.3173 115.898 37.3067 116.09 37.296V38H113.162V37.472C113.493 37.472 113.727 37.4027 113.866 37.264C114.015 37.1147 114.111 36.944 114.154 36.752C114.197 36.5493 114.218 36.368 114.218 36.208L114.234 28.512C114.234 28.3307 114.234 28.1493 114.234 27.968C114.234 27.7867 114.234 27.6107 114.234 27.44C114.063 27.4507 113.887 27.4613 113.706 27.472C113.525 27.4827 113.343 27.4933 113.162 27.504V26.8H115.066L121.066 34.832C121.205 35.0133 121.338 35.1947 121.466 35.376C121.605 35.5573 121.743 35.7387 121.882 35.92H121.898L121.914 28.592C121.914 28.3787 121.919 28.176 121.93 27.984C121.941 27.7813 121.951 27.6 121.962 27.44C121.77 27.4507 121.578 27.4613 121.386 27.472C121.194 27.4827 121.002 27.4933 120.81 27.504V26.8H123.754V27.328C123.359 27.3387 123.087 27.4293 122.938 27.6C122.789 27.7707 122.709 28 122.698 28.288C122.687 28.576 122.682 28.912 122.682 29.296L122.65 38.256H121.882ZM129.927 38C129.895 37.8187 129.874 37.6587 129.863 37.52C129.853 37.3813 129.837 37.2373 129.815 37.088C129.453 37.4507 129.058 37.7387 128.631 37.952C128.215 38.1547 127.773 38.256 127.303 38.256C126.493 38.256 125.89 38.0747 125.495 37.712C125.101 37.3387 124.903 36.8853 124.903 36.352C124.903 35.8613 125.053 35.44 125.351 35.088C125.661 34.7253 126.055 34.432 126.535 34.208C127.026 33.9733 127.554 33.8027 128.119 33.696C128.695 33.5787 129.25 33.5253 129.783 33.536V32.544C129.783 32.1707 129.751 31.8187 129.687 31.488C129.623 31.1573 129.485 30.8853 129.271 30.672C129.058 30.4587 128.717 30.3467 128.247 30.336C127.938 30.3253 127.618 30.384 127.287 30.512C126.967 30.64 126.733 30.8587 126.583 31.168C126.669 31.2533 126.722 31.3547 126.743 31.472C126.775 31.5787 126.791 31.68 126.791 31.776C126.791 31.904 126.738 32.0533 126.631 32.224C126.525 32.384 126.338 32.4587 126.071 32.448C125.847 32.448 125.677 32.3733 125.559 32.224C125.442 32.064 125.383 31.8773 125.383 31.664C125.383 31.3013 125.517 30.976 125.783 30.688C126.061 30.4 126.439 30.1707 126.919 30C127.399 29.8293 127.943 29.744 128.551 29.744C129.447 29.744 130.109 29.984 130.535 30.464C130.962 30.9333 131.17 31.68 131.159 32.704C131.159 33.0987 131.159 33.4987 131.159 33.904C131.159 34.2987 131.154 34.6987 131.143 35.104C131.143 35.4987 131.143 35.8987 131.143 36.304C131.143 36.4747 131.138 36.6453 131.127 36.816C131.117 36.9867 131.101 37.1787 131.079 37.392C131.271 37.3813 131.458 37.3707 131.639 37.36C131.831 37.3493 132.023 37.3387 132.215 37.328V38H129.927ZM129.783 34.08C129.421 34.0907 129.037 34.1387 128.631 34.224C128.237 34.2987 127.869 34.416 127.527 34.576C127.197 34.736 126.925 34.9493 126.711 35.216C126.509 35.472 126.413 35.7867 126.423 36.16C126.445 36.5547 126.573 36.8533 126.807 37.056C127.053 37.248 127.341 37.344 127.671 37.344C128.109 37.344 128.487 37.264 128.807 37.104C129.138 36.9333 129.463 36.6987 129.783 36.4C129.773 36.2827 129.767 36.1547 129.767 36.016C129.767 35.8773 129.767 35.7333 129.767 35.584C129.767 35.5307 129.767 35.36 129.767 35.072C129.778 34.784 129.783 34.4533 129.783 34.08ZM137.169 42.336C136.209 42.336 135.436 42.2293 134.849 42.016C134.263 41.8027 133.836 41.5307 133.569 41.2C133.303 40.8693 133.169 40.528 133.169 40.176C133.169 39.8453 133.244 39.552 133.393 39.296C133.553 39.0507 133.745 38.8373 133.969 38.656C134.204 38.4747 134.428 38.3413 134.641 38.256C134.3 38.1387 134.028 37.984 133.825 37.792C133.633 37.5893 133.537 37.3227 133.537 36.992C133.537 36.6187 133.687 36.272 133.985 35.952C134.284 35.6213 134.668 35.4187 135.137 35.344C134.647 35.1093 134.252 34.784 133.953 34.368C133.665 33.952 133.521 33.4667 133.521 32.912C133.521 32.272 133.687 31.7173 134.017 31.248C134.348 30.768 134.769 30.4 135.281 30.144C135.804 29.8773 136.343 29.744 136.897 29.744C137.249 29.744 137.601 29.7973 137.953 29.904C138.305 30 138.631 30.144 138.929 30.336C139.036 30.0373 139.185 29.7707 139.377 29.536C139.58 29.3013 139.809 29.12 140.065 28.992C140.321 28.8533 140.588 28.784 140.865 28.784C141.143 28.784 141.351 28.8587 141.489 29.008C141.639 29.1467 141.713 29.3387 141.713 29.584C141.713 29.6587 141.692 29.7493 141.649 29.856C141.607 29.9627 141.532 30.0533 141.425 30.128C141.329 30.2027 141.196 30.24 141.025 30.24C140.844 30.24 140.695 30.1867 140.577 30.08C140.46 29.9733 140.385 29.84 140.353 29.68C140.087 29.7227 139.879 29.8507 139.729 30.064C139.58 30.2667 139.479 30.4907 139.425 30.736C139.681 30.9707 139.884 31.2533 140.033 31.584C140.193 31.9147 140.273 32.2667 140.273 32.64C140.273 33.2373 140.113 33.7707 139.793 34.24C139.484 34.7093 139.073 35.0773 138.561 35.344C138.049 35.6 137.495 35.728 136.897 35.728C136.695 35.728 136.519 35.7173 136.369 35.696C136.22 35.664 136.039 35.648 135.825 35.648C135.431 35.648 135.111 35.744 134.865 35.936C134.62 36.128 134.535 36.3573 134.609 36.624C134.695 36.88 134.956 37.0453 135.393 37.12C135.831 37.184 136.417 37.232 137.153 37.264C137.975 37.296 138.679 37.392 139.265 37.552C139.852 37.712 140.3 37.9573 140.609 38.288C140.929 38.6293 141.089 39.088 141.089 39.664C141.089 40.0907 140.972 40.4693 140.737 40.8C140.513 41.1413 140.209 41.424 139.825 41.648C139.452 41.872 139.031 42.0427 138.561 42.16C138.103 42.2773 137.639 42.336 137.169 42.336ZM137.153 41.712C138.071 41.712 138.785 41.5413 139.297 41.2C139.809 40.8587 140.065 40.4587 140.065 40C140.065 39.6053 139.932 39.3013 139.665 39.088C139.399 38.8853 139.036 38.7413 138.577 38.656C138.119 38.5813 137.591 38.5387 136.993 38.528C136.705 38.5173 136.423 38.5013 136.145 38.48C135.868 38.4693 135.601 38.4427 135.345 38.4C135.057 38.592 134.833 38.8267 134.673 39.104C134.513 39.3813 134.433 39.6747 134.433 39.984C134.433 40.5067 134.679 40.9227 135.169 41.232C135.671 41.552 136.332 41.712 137.153 41.712ZM136.945 35.152C137.34 35.152 137.665 35.056 137.921 34.864C138.188 34.672 138.385 34.4107 138.513 34.08C138.652 33.7493 138.721 33.376 138.721 32.96C138.721 32.4907 138.652 32.0533 138.513 31.648C138.375 31.2427 138.167 30.9173 137.889 30.672C137.623 30.4267 137.281 30.304 136.865 30.304C136.289 30.304 135.841 30.5227 135.521 30.96C135.212 31.3867 135.057 31.92 135.057 32.56C135.057 33.072 135.132 33.5253 135.281 33.92C135.431 34.304 135.644 34.608 135.921 34.832C136.209 35.0453 136.551 35.152 136.945 35.152ZM147.021 38C146.989 37.8187 146.968 37.6587 146.957 37.52C146.946 37.3813 146.93 37.2373 146.909 37.088C146.546 37.4507 146.152 37.7387 145.725 37.952C145.309 38.1547 144.866 38.256 144.397 38.256C143.586 38.256 142.984 38.0747 142.589 37.712C142.194 37.3387 141.997 36.8853 141.997 36.352C141.997 35.8613 142.146 35.44 142.445 35.088C142.754 34.7253 143.149 34.432 143.629 34.208C144.12 33.9733 144.648 33.8027 145.213 33.696C145.789 33.5787 146.344 33.5253 146.877 33.536V32.544C146.877 32.1707 146.845 31.8187 146.781 31.488C146.717 31.1573 146.578 30.8853 146.365 30.672C146.152 30.4587 145.81 30.3467 145.341 30.336C145.032 30.3253 144.712 30.384 144.381 30.512C144.061 30.64 143.826 30.8587 143.677 31.168C143.762 31.2533 143.816 31.3547 143.837 31.472C143.869 31.5787 143.885 31.68 143.885 31.776C143.885 31.904 143.832 32.0533 143.725 32.224C143.618 32.384 143.432 32.4587 143.165 32.448C142.941 32.448 142.77 32.3733 142.653 32.224C142.536 32.064 142.477 31.8773 142.477 31.664C142.477 31.3013 142.61 30.976 142.877 30.688C143.154 30.4 143.533 30.1707 144.013 30C144.493 29.8293 145.037 29.744 145.645 29.744C146.541 29.744 147.202 29.984 147.629 30.464C148.056 30.9333 148.264 31.68 148.253 32.704C148.253 33.0987 148.253 33.4987 148.253 33.904C148.253 34.2987 148.248 34.6987 148.237 35.104C148.237 35.4987 148.237 35.8987 148.237 36.304C148.237 36.4747 148.232 36.6453 148.221 36.816C148.21 36.9867 148.194 37.1787 148.173 37.392C148.365 37.3813 148.552 37.3707 148.733 37.36C148.925 37.3493 149.117 37.3387 149.309 37.328V38H147.021ZM146.877 34.08C146.514 34.0907 146.13 34.1387 145.725 34.224C145.33 34.2987 144.962 34.416 144.621 34.576C144.29 34.736 144.018 34.9493 143.805 35.216C143.602 35.472 143.506 35.7867 143.517 36.16C143.538 36.5547 143.666 36.8533 143.901 37.056C144.146 37.248 144.434 37.344 144.765 37.344C145.202 37.344 145.581 37.264 145.901 37.104C146.232 36.9333 146.557 36.6987 146.877 36.4C146.866 36.2827 146.861 36.1547 146.861 36.016C146.861 35.8773 146.861 35.7333 146.861 35.584C146.861 35.5307 146.861 35.36 146.861 35.072C146.872 34.784 146.877 34.4533 146.877 34.08ZM150.407 37.52C150.738 37.52 150.967 37.44 151.095 37.28C151.223 37.1093 151.298 36.88 151.319 36.592C151.34 36.2933 151.351 35.952 151.351 35.568V31.92C151.351 31.7493 151.351 31.5787 151.351 31.408C151.362 31.2373 151.383 31.0613 151.415 30.88C151.223 30.8907 151.031 30.9013 150.839 30.912C150.658 30.912 150.471 30.9173 150.279 30.928V30.272H150.775C151.234 30.272 151.548 30.2293 151.719 30.144C151.9 30.048 152.05 29.9467 152.167 29.84H152.631C152.652 30.0107 152.668 30.224 152.679 30.48C152.69 30.7253 152.7 31.04 152.711 31.424C152.871 31.1573 153.09 30.896 153.367 30.64C153.644 30.384 153.954 30.1707 154.295 30C154.647 29.8293 155.015 29.744 155.399 29.744C155.698 29.744 155.959 29.824 156.183 29.984C156.407 30.144 156.519 30.4 156.519 30.752C156.519 30.8373 156.492 30.944 156.439 31.072C156.386 31.1893 156.3 31.296 156.183 31.392C156.066 31.4773 155.911 31.52 155.719 31.52C155.484 31.5093 155.298 31.4187 155.159 31.248C155.02 31.0667 154.967 30.8587 154.999 30.624C154.732 30.6133 154.455 30.6827 154.167 30.832C153.89 30.9813 153.628 31.1893 153.383 31.456C153.138 31.712 152.919 32.016 152.727 32.368L152.743 36.304C152.743 36.5173 152.738 36.7093 152.727 36.88C152.727 37.04 152.711 37.2107 152.679 37.392C152.85 37.3813 153.015 37.376 153.175 37.376C153.346 37.3653 153.516 37.3547 153.687 37.344V38H150.407V37.52Z" fill="black"/>
</svg>
